<svg xmlns="http://www.w3.org/2000/svg" width="46.003" height="46.007" viewBox="0 0 46.003 46.007">
  <g id="remove-like" transform="translate(-1 -0.993)">
    <path id="Trazado_26" data-name="Trazado 26" d="M46.137,17.045,31.466,14.9,24.9,1.563a1,1,0,0,0-1.806,0L16.534,14.9,1.863,17.045A1.011,1.011,0,0,0,1.3,18.768L11.922,29.151,9.416,43.818a1.006,1.006,0,0,0,1.461,1.063L24,37.957h0A10.96,10.96,0,0,1,37.874,27.394L46.7,18.768a1.011,1.011,0,0,0-.563-1.723Z" fill="#fc0"/>
    <path id="Trazado_27" data-name="Trazado 27" d="M35,29a9,9,0,1,0,9,9A9,9,0,0,0,35,29Zm4,10H31a1,1,0,0,1,0-2h8a1,1,0,0,1,0,2Z" fill="#e40303"/>
  </g>
</svg>
